
<svg width="61" height="61" viewBox="0 0 61 61" fill="none" xmlns="http://www.w3.org/2000/svg">
  <path d="M30.8408 12.0752C41.9745 12.0752 50.9389 19.3408 50.9389 28.3652C50.9389 32.7602 48.7714 36.6264 45.372 39.6733C39.8633 45.1221 30.372 50.6308 29.3764 50.2202C27.7358 49.5752 30.6064 46.0596 29.4345 44.5371C29.2583 44.3027 28.6133 44.3608 27.4414 44.1846C17.7739 42.8946 10.8589 36.5083 10.8589 28.3052C10.8589 19.2808 19.7651 12.0752 30.8389 12.0752H30.8408ZM19.4164 33.7539H22.8158C23.4026 33.7539 23.7533 33.2852 23.7533 32.6983C23.7533 32.2877 23.4608 31.7608 22.6976 31.7608H19.9433C19.7089 31.7608 19.7089 31.5264 19.7089 30.7052V24.7877C19.7089 24.2608 19.3564 23.7321 18.7133 23.7321C18.1264 23.7321 17.7176 24.2008 17.7176 24.7877V31.9371C17.7176 33.5196 18.4789 33.7539 19.4164 33.7539ZM27.0908 32.9346V24.7896C27.0908 24.2627 26.6801 23.7339 26.0351 23.7339C25.5083 23.7339 25.0395 24.2027 25.0395 24.7896V32.9346C25.0395 33.4614 25.4501 33.8721 26.0951 33.8721C26.622 33.8721 27.0908 33.4614 27.0908 32.9346ZM36.7001 31.8208V24.6714C36.7001 24.1446 36.2895 23.7339 35.6445 23.7339C35.1758 23.7339 34.6489 24.0264 34.6489 24.6714V29.8277L31.2495 25.0821C30.7808 24.2608 30.1939 23.7339 29.4908 23.7339C28.6114 23.7339 28.5533 24.4371 28.5533 25.4327V32.9327C28.5533 33.4596 28.9639 33.8702 29.5489 33.8702C30.0758 33.8702 30.5445 33.5177 30.5445 32.9327V27.6002L33.9439 32.3458C34.7051 33.3414 34.8814 33.8702 35.8189 33.8702C36.4639 33.8702 36.6983 33.2833 36.6983 31.8189L36.7001 31.8208ZM43.2626 27.7783H40.2739V26.0796C40.2739 25.9033 40.332 25.6689 40.6264 25.6689H43.2626C43.9076 25.6689 44.3183 25.3164 44.3183 24.6733C44.3183 23.9121 43.7314 23.6777 43.2045 23.6777H39.8051C38.7495 23.6777 38.2226 24.3808 38.2226 25.3183V31.9389C38.2226 33.1108 38.6914 33.7558 39.8051 33.7558H43.2626C44.0239 33.7558 44.3183 33.2871 44.3183 32.7002C44.3183 31.9389 43.7314 31.7046 43.2626 31.7046H40.6845C40.4501 31.7046 40.2739 31.5283 40.2739 31.3521V29.7114H43.3789C44.1401 29.7114 44.2583 29.1246 44.2583 28.7158C44.2583 28.1289 43.7895 27.7783 43.2626 27.7783Z" fill="#ffffff"/>
</svg>
